PathFileType	4	(X/Y/Z)	s07c0103.trc
DataRate	CameraRate	NumFrames	NumMarkers	Units	OrigDataRate	OrigDataStartFrame	OrigNumFrames
200	200	4	47	mm	200	1000	2000
Frame#	Time	racr			lacr			c7			jug			rlel			rdr			llel			ldr			s2			lic			ric			lasi			rasi			rpsi			lpsi			rgt			lgt			rth1			rth2			rth3			rth4			rlfc			rmfc			rsh1			rsh2			rsh3			rsh4			rcal			rtoe			rmt5			lth1			lth2			lth4			lth3			llfc			lmfc			lsh1			lsh2			lsh3			lsh4			llmal			lcal			ltoe			lmt5			SBIKE			LBIKE			RBIKE			
		X1	Y1	Z1	X2	Y2	Z2	X3	Y3	Z3	X4	Y4	Z4	X5	Y5	Z5	X6	Y6	Z6	X7	Y7	Z7	X8	Y8	Z8	X9	Y9	Z9	X10	Y10	Z10	X11	Y11	Z11	X12	Y12	Z12	X13	Y13	Z13	X14	Y14	Z14	X15	Y15	Z15	X16	Y16	Z16	X17	Y17	Z17	X18	Y18	Z18	X19	Y19	Z19	X20	Y20	Z20	X21	Y21	Z21	X22	Y22	Z22	X23	Y23	Z23	X24	Y24	Z24	X25	Y25	Z25	X26	Y26	Z26	X27	Y27	Z27	X28	Y28	Z28	X29	Y29	Z29	X30	Y30	Z30	X31	Y31	Z31	X32	Y32	Z32	X33	Y33	Z33	X34	Y34	Z34	X35	Y35	Z35	X36	Y36	Z36	X37	Y37	Z37	X38	Y38	Z38	X39	Y39	Z39	X40	Y40	Z40	X41	Y41	Z41	X42	Y42	Z42	X43	Y43	Z43	X44	Y44	Z44	X45	Y45	Z45	X46	Y46	Z46	X47	Y47	Z47	
1000	5.0000	517.266355	1385.026758	-142.835513	485.999775	1397.709363	-394.980469	461.523031	1438.070272	-264.152345	427.086500	1294.431819	-278.615403	516.039801	1087.466024	50.369480	715.934211	912.961554	-72.007328	513.376700	1092.200809	-554.472799	718.427729	911.023810	-432.097186	-130.270393	1203.578157	-196.892409	-0.869551	1287.440371	-353.999656	74.818581	1224.808881	-83.262387	30.154535	1209.307500	-351.148708	83.121860	1180.080550	-106.362643	-90.254374	1235.970873	-148.196307	-104.868753	1263.982229	-250.321554	22.710894	1099.188850	-44.445857	-52.396078	1129.615540	-399.311091	154.830157	1014.368405	-57.134242	231.369548	975.236076	-75.034899	282.619397	906.751810	-77.410880	249.644174	1000.396921	-95.320442	355.723053	799.836484	-116.930986	334.957598	784.266102	-220.222851	256.316392	700.877134	-86.669174	212.984256	624.041628	-96.110687	139.201522	578.007770	-87.049175	225.174005	611.819429	-133.643440	-25.370566	513.709626	-109.296233	113.786129	258.975390	-126.467883	45.650290	306.737854	-56.090793	35.350101	1029.076351	-413.709353	114.451891	989.906763	-419.457981	138.700321	1016.817368	-415.001104	164.762770	916.592347	-416.077161	290.310375	790.823515	-391.520346	285.533843	767.344892	-298.791290	260.796801	645.934834	-415.386050	266.777831	561.957653	-395.701042	226.950875	480.870393	-405.482383	268.099161	565.027344	-353.674096	198.069206	344.518414	-402.699496	138.492552	286.461794	-369.807217	421.249409	350.836961	-365.000205	352.509079	301.718402	-430.457551	-261.822740	965.192309	-236.093172	-82.932649	79.164094	-436.747365	-82.867941	78.959771	-39.207828	
1001	5.0050	515.114702	1388.822058	-140.102563	487.081742	1399.568550	-393.358218	460.348994	1441.358092	-263.026809	426.373605	1297.564013	-277.087542	516.987038	1089.234295	50.503202	716.306156	913.811381	-71.558943	516.163034	1094.773002	-554.530340	718.618983	911.090230	-432.515520	-129.882134	1202.658947	-199.576108	-0.091824	1285.514288	-357.025515	74.075530	1225.766451	-85.174403	31.191567	1207.595820	-353.743541	82.967038	1180.584266	-108.625260	-90.451260	1235.267652	-150.962912	-104.508157	1262.651087	-253.738863	23.669424	1100.192112	-45.877828	-51.893999	1127.238758	-401.173068	157.709587	1018.168767	-57.315130	235.209206	981.378478	-75.723449	288.489368	914.423858	-78.251495	252.440159	1006.979217	-96.471157	363.472591	809.074714	-117.957483	342.647402	793.090118	-221.152063	264.124889	710.022795	-87.373952	220.699704	633.218887	-96.460139	146.887926	587.436013	-87.197489	233.213315	621.194378	-133.667456	-15.353303	525.967308	-108.752022	113.802212	266.183133	-126.589064	47.452514	316.256054	-56.258751	33.714819	1025.542699	-415.747791	111.778554	984.416594	-421.443733	136.661881	1010.467437	-416.562843	160.087724	909.612466	-417.871345	282.276660	780.687457	-392.786986	275.767227	758.808684	-298.842875	253.652856	635.344776	-416.717457	261.059884	551.616012	-397.132359	222.627376	469.516330	-405.851815	263.055219	554.646635	-355.162331	195.956628	332.760968	-402.317258	136.636294	275.061913	-369.623343	419.284970	340.316014	-364.976444	350.648463	290.893756	-430.278934	-261.875623	965.188090	-236.325739	-82.940905	79.129914	-436.803058	-82.859179	78.974242	-39.262896	
1002	5.0100	512.821979	1392.648568	-137.223364	488.073332	1401.763733	-391.354090	459.101302	1444.655503	-261.518264	425.788845	1300.677920	-275.344201	517.938113	1091.207280	50.674844	716.421612	914.219044	-71.645709	519.051008	1097.658031	-554.465703	718.809125	911.167524	-432.751228	-129.362839	1201.788833	-202.495388	0.783815	1283.773801	-360.196684	73.115568	1226.859376	-87.063572	32.475018	1206.017651	-356.379545	82.760957	1181.662873	-110.655788	-90.703227	1234.759354	-153.894761	-104.036209	1261.417636	-257.202669	24.480930	1101.460128	-47.286419	-51.192168	1124.985295	-403.007244	160.222183	1022.416562	-57.942488	238.562902	987.669795	-76.826528	293.903952	922.400130	-79.102026	254.872892	1013.562694	-97.895358	370.955936	818.702480	-118.594598	349.786818	801.511476	-222.245204	272.135455	719.199708	-88.009634	228.853685	642.317799	-96.794908	155.123840	596.450176	-87.335004	241.162512	630.204662	-134.109236	-6.862789	537.160295	-109.654859	113.340451	272.621609	-127.923616	50.045966	325.778925	-56.166559	32.310249	1022.186024	-417.625987	109.252400	978.926514	-423.326263	134.790959	1004.427795	-418.370425	155.410288	902.957444	-420.013385	274.447545	770.655470	-393.934027	268.997917	749.187559	-301.389791	246.257670	624.934117	-418.065999	255.213542	541.260329	-398.664298	217.483222	459.292205	-406.478818	257.733011	544.682356	-356.514046	193.288754	321.809044	-402.247198	134.206954	264.292236	-369.434675	417.096702	330.590060	-365.885101	348.155493	280.267777	-430.122565	-261.918028	965.198600	-236.568849	-82.938156	79.077691	-436.817093	-82.851362	78.995496	-39.269242	
1003	5.0150	510.247952	1396.487575	-134.151479	488.951699	1404.239374	-388.779600	457.763446	1448.140542	-259.532893	424.874092	1304.055940	-273.317436	518.345920	1093.149989	50.545440	716.534598	914.561871	-71.759210	521.997063	1100.835820	-554.071631	718.969404	911.262242	-432.789705	-128.758694	1200.994285	-205.539580	1.769271	1282.282242	-363.452807	72.024816	1228.149763	-88.844751	33.829982	1204.521966	-358.868772	82.449292	1182.964655	-112.683370	-90.890646	1234.377501	-157.004194	-103.497321	1260.236149	-260.758215	25.269816	1103.010510	-48.806009	-50.364139	1123.017426	-404.783912	162.292430	1026.873693	-59.191537	241.442703	994.167260	-77.920049	298.672170	930.547977	-80.472173	256.995307	1020.381356	-99.411877	377.816871	828.316900	-119.342263	357.170490	810.919101	-222.492511	280.197049	728.415474	-88.629230	236.939926	651.588220	-97.311286	163.378667	605.494772	-87.537634	250.401253	639.290682	-134.407771	2.969972	548.269834	-109.857316	114.547073	279.879864	-128.097558	53.109118	335.106162	-56.467573	31.007210	1018.653901	-419.332073	106.804879	973.560428	-425.023865	133.016545	998.383913	-420.086933	150.922913	896.345998	-421.560510	266.310255	760.896469	-395.378066	260.847666	740.575439	-302.793020	239.272366	615.102885	-419.312296	249.264947	531.625366	-399.793553	216.379454	447.514211	-404.947902	252.282922	534.973618	-357.860873	190.027905	311.442446	-402.296324	131.245425	254.009969	-369.313512	414.033701	319.075822	-364.730863	345.154000	269.777956	-430.033207	-261.907384	965.226671	-236.813700	-82.943957	79.037849	-436.827414	-82.861703	79.017434	-39.283859	
